<mxfile host="Electron" modified="2024-03-30T09:53:20.570Z" agent="Mozilla/5.0 (Windows NT 10.0; Win64; x64) AppleWebKit/537.36 (KHTML, like Gecko) draw.io/24.0.4 Chrome/120.0.6099.109 Electron/28.1.0 Safari/537.36" etag="7blQHy55tPPLJvjvdUeN" version="24.0.4" type="device">
  <diagram name="第 1 页" id="1nsFY1wsE1BqHFBOwBMz">
    <mxGraphModel dx="3243" dy="1196" grid="1" gridSize="10" guides="1" tooltips="1" connect="1" arrows="1" fold="1" page="1" pageScale="1" pageWidth="1169" pageHeight="827" math="0" shadow="0">
      <root>
        <mxCell id="0" />
        <mxCell id="1" parent="0" />
        <mxCell id="jwZE7J-fwp3m7tZiTKkM-10" value="&lt;div style=&quot;&quot;&gt;&lt;font size=&quot;1&quot; style=&quot;&quot;&gt;&lt;u style=&quot;&quot;&gt;oDetial_Id&lt;/u&gt;&lt;/font&gt;&lt;/div&gt;" style="rounded=0;whiteSpace=wrap;html=1;" parent="1" vertex="1">
          <mxGeometry x="-480" y="140" width="120" height="60" as="geometry" />
        </mxCell>
        <mxCell id="jwZE7J-fwp3m7tZiTKkM-12" value="&lt;font style=&quot;font-size: 17px;&quot;&gt;OrderDetail&lt;/font&gt;" style="text;html=1;align=center;verticalAlign=middle;whiteSpace=wrap;rounded=0;" parent="1" vertex="1">
          <mxGeometry x="-470" y="110" width="60" height="30" as="geometry" />
        </mxCell>
        <mxCell id="E0sUDLMQuyzjQYQ1eUFq-3" style="edgeStyle=orthogonalEdgeStyle;rounded=0;orthogonalLoop=1;jettySize=auto;html=1;exitX=0.5;exitY=1;exitDx=0;exitDy=0;entryX=0.5;entryY=0;entryDx=0;entryDy=0;" parent="1" source="jwZE7J-fwp3m7tZiTKkM-13" target="jwZE7J-fwp3m7tZiTKkM-37" edge="1">
          <mxGeometry relative="1" as="geometry" />
        </mxCell>
        <mxCell id="jwZE7J-fwp3m7tZiTKkM-13" value="&lt;div style=&quot;&quot;&gt;foodId&lt;/div&gt;" style="rounded=0;whiteSpace=wrap;html=1;" parent="1" vertex="1">
          <mxGeometry x="-360" y="140" width="120" height="60" as="geometry" />
        </mxCell>
        <mxCell id="E0sUDLMQuyzjQYQ1eUFq-4" style="edgeStyle=orthogonalEdgeStyle;rounded=0;orthogonalLoop=1;jettySize=auto;html=1;exitX=0.5;exitY=1;exitDx=0;exitDy=0;entryX=0.75;entryY=0;entryDx=0;entryDy=0;" parent="1" source="jwZE7J-fwp3m7tZiTKkM-16" target="_mTMMAmOzoBjhHp0LAJW-133" edge="1">
          <mxGeometry relative="1" as="geometry" />
        </mxCell>
        <mxCell id="jwZE7J-fwp3m7tZiTKkM-16" value="&lt;font style=&quot;font-size: 12px;&quot;&gt;orderId&lt;/font&gt;" style="rounded=0;whiteSpace=wrap;html=1;fontSize=16;" parent="1" vertex="1">
          <mxGeometry x="-240" y="140" width="120" height="60" as="geometry" />
        </mxCell>
        <mxCell id="jwZE7J-fwp3m7tZiTKkM-17" value="&lt;font style=&quot;font-size: 12px;&quot;&gt;foodQuantity&lt;/font&gt;" style="rounded=0;whiteSpace=wrap;html=1;fontSize=16;" parent="1" vertex="1">
          <mxGeometry x="-120" y="140" width="120" height="60" as="geometry" />
        </mxCell>
        <mxCell id="jwZE7J-fwp3m7tZiTKkM-19" style="edgeStyle=orthogonalEdgeStyle;rounded=0;orthogonalLoop=1;jettySize=auto;html=1;exitX=0.5;exitY=1;exitDx=0;exitDy=0;" parent="1" source="jwZE7J-fwp3m7tZiTKkM-17" target="jwZE7J-fwp3m7tZiTKkM-17" edge="1">
          <mxGeometry relative="1" as="geometry" />
        </mxCell>
        <mxCell id="jwZE7J-fwp3m7tZiTKkM-20" value="" style="endArrow=none;dashed=1;html=1;rounded=0;" parent="1" edge="1">
          <mxGeometry width="50" height="50" relative="1" as="geometry">
            <mxPoint x="-210" y="180" as="sourcePoint" />
            <mxPoint x="-150" y="180" as="targetPoint" />
            <Array as="points">
              <mxPoint x="-160" y="180" />
            </Array>
          </mxGeometry>
        </mxCell>
        <mxCell id="jwZE7J-fwp3m7tZiTKkM-22" value="&lt;font style=&quot;font-size: 17px;&quot;&gt;CoffeeOrder&lt;/font&gt;" style="text;html=1;align=center;verticalAlign=middle;whiteSpace=wrap;rounded=0;" parent="1" vertex="1">
          <mxGeometry x="-900" y="110" width="60" height="30" as="geometry" />
        </mxCell>
        <mxCell id="E0sUDLMQuyzjQYQ1eUFq-5" style="edgeStyle=orthogonalEdgeStyle;rounded=0;orthogonalLoop=1;jettySize=auto;html=1;exitX=0.5;exitY=1;exitDx=0;exitDy=0;entryX=0.5;entryY=1;entryDx=0;entryDy=0;" parent="1" source="jwZE7J-fwp3m7tZiTKkM-23" target="jwZE7J-fwp3m7tZiTKkM-10" edge="1">
          <mxGeometry relative="1" as="geometry" />
        </mxCell>
        <mxCell id="jwZE7J-fwp3m7tZiTKkM-23" value="&lt;font style=&quot;font-size: 12px;&quot;&gt;&lt;u&gt;oDetail_Id&lt;/u&gt;&lt;/font&gt;" style="rounded=0;whiteSpace=wrap;html=1;" parent="1" vertex="1">
          <mxGeometry x="-920" y="140" width="120" height="60" as="geometry" />
        </mxCell>
        <mxCell id="jwZE7J-fwp3m7tZiTKkM-25" value="&lt;font style=&quot;font-size: 12px;&quot;&gt;cType&lt;/font&gt;" style="rounded=0;whiteSpace=wrap;html=1;" parent="1" vertex="1">
          <mxGeometry x="-800" y="140" width="120" height="60" as="geometry" />
        </mxCell>
        <mxCell id="jwZE7J-fwp3m7tZiTKkM-28" value="&lt;font style=&quot;font-size: 12px;&quot;&gt;milkKind&lt;/font&gt;" style="rounded=0;whiteSpace=wrap;html=1;" parent="1" vertex="1">
          <mxGeometry x="-680" y="140" width="120" height="60" as="geometry" />
        </mxCell>
        <mxCell id="jwZE7J-fwp3m7tZiTKkM-34" value="" style="endArrow=none;dashed=1;html=1;rounded=0;" parent="1" edge="1">
          <mxGeometry width="50" height="50" relative="1" as="geometry">
            <mxPoint x="-905" y="180" as="sourcePoint" />
            <mxPoint x="-815" y="180" as="targetPoint" />
            <Array as="points">
              <mxPoint x="-815" y="180" />
            </Array>
          </mxGeometry>
        </mxCell>
        <mxCell id="jwZE7J-fwp3m7tZiTKkM-36" value="&lt;font style=&quot;font-size: 17px;&quot;&gt;Menu&lt;/font&gt;" style="text;html=1;align=center;verticalAlign=middle;whiteSpace=wrap;rounded=0;" parent="1" vertex="1">
          <mxGeometry x="-750" y="370" width="60" height="30" as="geometry" />
        </mxCell>
        <mxCell id="jwZE7J-fwp3m7tZiTKkM-37" value="&lt;u style=&quot;&quot;&gt;&lt;font style=&quot;font-size: 12px;&quot;&gt;foodId&lt;/font&gt;&lt;/u&gt;" style="rounded=0;whiteSpace=wrap;html=1;" parent="1" vertex="1">
          <mxGeometry x="-740" y="400" width="120" height="60" as="geometry" />
        </mxCell>
        <mxCell id="jwZE7J-fwp3m7tZiTKkM-39" value="&lt;font style=&quot;font-size: 12px;&quot;&gt;f_Price&lt;/font&gt;" style="rounded=0;whiteSpace=wrap;html=1;" parent="1" vertex="1">
          <mxGeometry x="-620" y="400" width="120" height="60" as="geometry" />
        </mxCell>
        <mxCell id="jwZE7J-fwp3m7tZiTKkM-41" value="&lt;font style=&quot;font-size: 12px;&quot;&gt;f_Category&lt;/font&gt;" style="rounded=0;whiteSpace=wrap;html=1;" parent="1" vertex="1">
          <mxGeometry x="-500" y="400" width="120" height="60" as="geometry" />
        </mxCell>
        <mxCell id="jwZE7J-fwp3m7tZiTKkM-43" value="&lt;font style=&quot;font-size: 12px;&quot;&gt;foodName&lt;/font&gt;" style="rounded=0;whiteSpace=wrap;html=1;" parent="1" vertex="1">
          <mxGeometry x="-380" y="400" width="120" height="60" as="geometry" />
        </mxCell>
        <mxCell id="jwZE7J-fwp3m7tZiTKkM-45" value="&lt;font style=&quot;font-size: 12px;&quot;&gt;foodSeason&lt;/font&gt;" style="rounded=0;whiteSpace=wrap;html=1;" parent="1" vertex="1">
          <mxGeometry x="-260" y="400" width="120" height="60" as="geometry" />
        </mxCell>
        <mxCell id="jwZE7J-fwp3m7tZiTKkM-47" value="&lt;font style=&quot;font-size: 12px;&quot;&gt;f_Description&lt;/font&gt;" style="rounded=0;whiteSpace=wrap;html=1;" parent="1" vertex="1">
          <mxGeometry x="-140" y="400" width="140" height="60" as="geometry" />
        </mxCell>
        <mxCell id="_mTMMAmOzoBjhHp0LAJW-277" style="edgeStyle=orthogonalEdgeStyle;rounded=0;orthogonalLoop=1;jettySize=auto;html=1;exitX=0;exitY=0.5;exitDx=0;exitDy=0;entryX=0;entryY=0.5;entryDx=0;entryDy=0;" parent="1" source="jwZE7J-fwp3m7tZiTKkM-49" target="jwZE7J-fwp3m7tZiTKkM-37" edge="1">
          <mxGeometry relative="1" as="geometry">
            <mxPoint x="-780" y="430" as="targetPoint" />
            <Array as="points">
              <mxPoint x="-780" y="600" />
              <mxPoint x="-780" y="430" />
            </Array>
          </mxGeometry>
        </mxCell>
        <mxCell id="jwZE7J-fwp3m7tZiTKkM-49" value="&lt;u&gt;foodId&lt;/u&gt;" style="rounded=0;whiteSpace=wrap;html=1;" parent="1" vertex="1">
          <mxGeometry x="-750" y="570" width="120" height="60" as="geometry" />
        </mxCell>
        <mxCell id="jwZE7J-fwp3m7tZiTKkM-51" value="&lt;font style=&quot;font-size: 17px;&quot;&gt;Come_free&lt;/font&gt;" style="text;html=1;align=center;verticalAlign=middle;whiteSpace=wrap;rounded=0;" parent="1" vertex="1">
          <mxGeometry x="-740" y="540" width="60" height="30" as="geometry" />
        </mxCell>
        <mxCell id="_mTMMAmOzoBjhHp0LAJW-274" style="edgeStyle=orthogonalEdgeStyle;rounded=0;orthogonalLoop=1;jettySize=auto;html=1;exitX=1;exitY=0.5;exitDx=0;exitDy=0;entryX=0;entryY=0.5;entryDx=0;entryDy=0;" parent="1" source="jwZE7J-fwp3m7tZiTKkM-53" target="jwZE7J-fwp3m7tZiTKkM-57" edge="1">
          <mxGeometry relative="1" as="geometry" />
        </mxCell>
        <mxCell id="jwZE7J-fwp3m7tZiTKkM-53" value="&lt;u style=&quot;&quot;&gt;&lt;font style=&quot;font-size: 12px;&quot;&gt;free_FId&lt;/font&gt;&lt;/u&gt;" style="rounded=0;whiteSpace=wrap;html=1;" parent="1" vertex="1">
          <mxGeometry x="-630" y="570" width="120" height="60" as="geometry" />
        </mxCell>
        <mxCell id="jwZE7J-fwp3m7tZiTKkM-55" value="&lt;font style=&quot;font-size: 17px;&quot;&gt;Free_items&lt;/font&gt;" style="text;html=1;align=center;verticalAlign=middle;whiteSpace=wrap;rounded=0;" parent="1" vertex="1">
          <mxGeometry x="-420" y="540" width="60" height="30" as="geometry" />
        </mxCell>
        <mxCell id="jwZE7J-fwp3m7tZiTKkM-57" value="&lt;u style=&quot;&quot;&gt;&lt;font style=&quot;font-size: 12px;&quot;&gt;free_FId&lt;/font&gt;&lt;/u&gt;" style="rounded=0;whiteSpace=wrap;html=1;" parent="1" vertex="1">
          <mxGeometry x="-430" y="570" width="120" height="60" as="geometry" />
        </mxCell>
        <mxCell id="E0sUDLMQuyzjQYQ1eUFq-6" style="edgeStyle=orthogonalEdgeStyle;rounded=0;orthogonalLoop=1;jettySize=auto;html=1;exitX=0.5;exitY=1;exitDx=0;exitDy=0;entryX=0;entryY=0.5;entryDx=0;entryDy=0;" parent="1" source="jwZE7J-fwp3m7tZiTKkM-59" target="jwZE7J-fwp3m7tZiTKkM-37" edge="1">
          <mxGeometry relative="1" as="geometry">
            <Array as="points">
              <mxPoint x="-250" y="650" />
              <mxPoint x="-780" y="650" />
              <mxPoint x="-780" y="430" />
            </Array>
          </mxGeometry>
        </mxCell>
        <mxCell id="jwZE7J-fwp3m7tZiTKkM-59" value="&lt;font style=&quot;font-size: 12px;&quot;&gt;foodId&lt;/font&gt;" style="rounded=0;whiteSpace=wrap;html=1;fontSize=16;" parent="1" vertex="1">
          <mxGeometry x="-310" y="570" width="120" height="60" as="geometry" />
        </mxCell>
        <mxCell id="jwZE7J-fwp3m7tZiTKkM-61" value="" style="endArrow=none;dashed=1;html=1;rounded=0;" parent="1" edge="1">
          <mxGeometry width="50" height="50" relative="1" as="geometry">
            <mxPoint x="-225" y="610" as="sourcePoint" />
            <mxPoint x="-285" y="610" as="targetPoint" />
            <Array as="points">
              <mxPoint x="-215" y="610" />
            </Array>
          </mxGeometry>
        </mxCell>
        <mxCell id="jwZE7J-fwp3m7tZiTKkM-120" style="edgeStyle=orthogonalEdgeStyle;rounded=0;orthogonalLoop=1;jettySize=auto;html=1;exitX=0.5;exitY=1;exitDx=0;exitDy=0;entryX=0.5;entryY=0;entryDx=0;entryDy=0;" parent="1" edge="1">
          <mxGeometry relative="1" as="geometry">
            <mxPoint x="560" y="120.00000000000011" as="targetPoint" />
            <Array as="points">
              <mxPoint x="560" y="480" />
              <mxPoint x="281" y="480" />
              <mxPoint x="281" y="30" />
              <mxPoint x="560" y="30" />
            </Array>
          </mxGeometry>
        </mxCell>
        <mxCell id="_mTMMAmOzoBjhHp0LAJW-116" value="&lt;u&gt;cardNum&lt;/u&gt;" style="whiteSpace=wrap;html=1;align=center;" parent="1" vertex="1">
          <mxGeometry x="590" y="140" width="100" height="40" as="geometry" />
        </mxCell>
        <mxCell id="_mTMMAmOzoBjhHp0LAJW-117" value="" style="shape=table;startSize=0;container=1;collapsible=1;childLayout=tableLayout;fixedRows=1;rowLines=0;fontStyle=0;align=center;resizeLast=1;strokeColor=none;fillColor=none;collapsible=0;whiteSpace=wrap;html=1;" parent="1" vertex="1">
          <mxGeometry x="550" y="110" width="180" height="30" as="geometry" />
        </mxCell>
        <mxCell id="_mTMMAmOzoBjhHp0LAJW-118" value="" style="shape=tableRow;horizontal=0;startSize=0;swimlaneHead=0;swimlaneBody=0;fillColor=none;collapsible=0;dropTarget=0;points=[[0,0.5],[1,0.5]];portConstraint=eastwest;top=0;left=0;right=0;bottom=0;" parent="_mTMMAmOzoBjhHp0LAJW-117" vertex="1">
          <mxGeometry width="180" height="30" as="geometry" />
        </mxCell>
        <mxCell id="_mTMMAmOzoBjhHp0LAJW-119" value="" style="shape=partialRectangle;connectable=0;fillColor=none;top=0;left=0;bottom=0;right=0;editable=1;overflow=hidden;" parent="_mTMMAmOzoBjhHp0LAJW-118" vertex="1">
          <mxGeometry width="30" height="30" as="geometry">
            <mxRectangle width="30" height="30" as="alternateBounds" />
          </mxGeometry>
        </mxCell>
        <mxCell id="_mTMMAmOzoBjhHp0LAJW-120" value="Credit_CardDetail" style="shape=partialRectangle;connectable=0;fillColor=none;top=0;left=0;bottom=0;right=0;align=left;spacingLeft=6;overflow=hidden;fontSize=17;" parent="_mTMMAmOzoBjhHp0LAJW-118" vertex="1">
          <mxGeometry x="30" width="150" height="30" as="geometry">
            <mxRectangle width="150" height="30" as="alternateBounds" />
          </mxGeometry>
        </mxCell>
        <mxCell id="_mTMMAmOzoBjhHp0LAJW-121" value="expiryDate" style="whiteSpace=wrap;html=1;align=center;" parent="1" vertex="1">
          <mxGeometry x="890" y="140" width="100" height="40" as="geometry" />
        </mxCell>
        <mxCell id="_mTMMAmOzoBjhHp0LAJW-122" value="CVV&amp;nbsp;" style="whiteSpace=wrap;html=1;align=center;" parent="1" vertex="1">
          <mxGeometry x="990" y="140" width="100" height="40" as="geometry" />
        </mxCell>
        <mxCell id="_mTMMAmOzoBjhHp0LAJW-123" value="price" style="whiteSpace=wrap;html=1;align=center;" parent="1" vertex="1">
          <mxGeometry x="340" y="140" width="100" height="40" as="geometry" />
        </mxCell>
        <mxCell id="_mTMMAmOzoBjhHp0LAJW-124" value="payMethod&amp;nbsp;" style="whiteSpace=wrap;html=1;align=center;" parent="1" vertex="1">
          <mxGeometry x="240" y="140" width="100" height="40" as="geometry" />
        </mxCell>
        <mxCell id="_mTMMAmOzoBjhHp0LAJW-125" value="&lt;u&gt;paymentId&lt;/u&gt;" style="whiteSpace=wrap;html=1;align=center;" parent="1" vertex="1">
          <mxGeometry x="140" y="140" width="100" height="40" as="geometry" />
        </mxCell>
        <mxCell id="_mTMMAmOzoBjhHp0LAJW-126" value="" style="shape=table;startSize=0;container=1;collapsible=1;childLayout=tableLayout;fixedRows=1;rowLines=0;fontStyle=0;align=center;resizeLast=1;strokeColor=none;fillColor=none;collapsible=0;whiteSpace=wrap;html=1;" parent="1" vertex="1">
          <mxGeometry x="100" y="110" width="180" height="30" as="geometry" />
        </mxCell>
        <mxCell id="_mTMMAmOzoBjhHp0LAJW-127" value="" style="shape=tableRow;horizontal=0;startSize=0;swimlaneHead=0;swimlaneBody=0;fillColor=none;collapsible=0;dropTarget=0;points=[[0,0.5],[1,0.5]];portConstraint=eastwest;top=0;left=0;right=0;bottom=0;" parent="_mTMMAmOzoBjhHp0LAJW-126" vertex="1">
          <mxGeometry width="180" height="30" as="geometry" />
        </mxCell>
        <mxCell id="_mTMMAmOzoBjhHp0LAJW-128" value="" style="shape=partialRectangle;connectable=0;fillColor=none;top=0;left=0;bottom=0;right=0;editable=1;overflow=hidden;" parent="_mTMMAmOzoBjhHp0LAJW-127" vertex="1">
          <mxGeometry width="30" height="30" as="geometry">
            <mxRectangle width="30" height="30" as="alternateBounds" />
          </mxGeometry>
        </mxCell>
        <mxCell id="_mTMMAmOzoBjhHp0LAJW-129" value="Payment" style="shape=partialRectangle;connectable=0;fillColor=none;top=0;left=0;bottom=0;right=0;align=left;spacingLeft=6;overflow=hidden;fontSize=17;" parent="_mTMMAmOzoBjhHp0LAJW-127" vertex="1">
          <mxGeometry x="30" width="150" height="30" as="geometry">
            <mxRectangle width="150" height="30" as="alternateBounds" />
          </mxGeometry>
        </mxCell>
        <mxCell id="_mTMMAmOzoBjhHp0LAJW-130" style="edgeStyle=orthogonalEdgeStyle;rounded=0;orthogonalLoop=1;jettySize=auto;html=1;exitX=0.5;exitY=1;exitDx=0;exitDy=0;entryX=0.5;entryY=1;entryDx=0;entryDy=0;" parent="1" source="_mTMMAmOzoBjhHp0LAJW-131" target="_mTMMAmOzoBjhHp0LAJW-116" edge="1">
          <mxGeometry relative="1" as="geometry" />
        </mxCell>
        <mxCell id="_mTMMAmOzoBjhHp0LAJW-131" value="cardNum" style="whiteSpace=wrap;html=1;align=center;" parent="1" vertex="1">
          <mxGeometry x="440" y="140" width="100" height="40" as="geometry" />
        </mxCell>
        <mxCell id="_mTMMAmOzoBjhHp0LAJW-132" value="" style="endArrow=none;dashed=1;html=1;rounded=0;" parent="1" edge="1">
          <mxGeometry width="50" height="50" relative="1" as="geometry">
            <mxPoint x="465" y="170" as="sourcePoint" />
            <mxPoint x="515" y="170" as="targetPoint" />
            <Array as="points">
              <mxPoint x="465" y="170" />
            </Array>
          </mxGeometry>
        </mxCell>
        <mxCell id="_mTMMAmOzoBjhHp0LAJW-133" value="&lt;u&gt;orderId&lt;/u&gt;" style="whiteSpace=wrap;html=1;align=center;" parent="1" vertex="1">
          <mxGeometry x="140" y="300" width="100" height="40" as="geometry" />
        </mxCell>
        <mxCell id="_mTMMAmOzoBjhHp0LAJW-138" value="method&amp;nbsp;" style="whiteSpace=wrap;html=1;align=center;" parent="1" vertex="1">
          <mxGeometry x="240" y="300" width="100" height="40" as="geometry" />
        </mxCell>
        <mxCell id="_mTMMAmOzoBjhHp0LAJW-139" style="edgeStyle=orthogonalEdgeStyle;rounded=0;orthogonalLoop=1;jettySize=auto;html=1;exitX=0.5;exitY=0;exitDx=0;exitDy=0;" parent="1" source="_mTMMAmOzoBjhHp0LAJW-140" target="_mTMMAmOzoBjhHp0LAJW-146" edge="1">
          <mxGeometry relative="1" as="geometry" />
        </mxCell>
        <mxCell id="_mTMMAmOzoBjhHp0LAJW-140" value="customerId" style="whiteSpace=wrap;html=1;align=center;" parent="1" vertex="1">
          <mxGeometry x="440" y="300" width="100" height="40" as="geometry" />
        </mxCell>
        <mxCell id="_mTMMAmOzoBjhHp0LAJW-141" style="edgeStyle=orthogonalEdgeStyle;rounded=0;orthogonalLoop=1;jettySize=auto;html=1;exitX=0.5;exitY=0;exitDx=0;exitDy=0;entryX=0.5;entryY=1;entryDx=0;entryDy=0;" parent="1" source="_mTMMAmOzoBjhHp0LAJW-142" target="_mTMMAmOzoBjhHp0LAJW-125" edge="1">
          <mxGeometry relative="1" as="geometry">
            <Array as="points">
              <mxPoint x="390" y="220" />
              <mxPoint x="190" y="220" />
            </Array>
          </mxGeometry>
        </mxCell>
        <mxCell id="_mTMMAmOzoBjhHp0LAJW-142" value="paymentId&amp;nbsp;" style="whiteSpace=wrap;html=1;align=center;" parent="1" vertex="1">
          <mxGeometry x="340" y="300" width="100" height="40" as="geometry" />
        </mxCell>
        <mxCell id="_mTMMAmOzoBjhHp0LAJW-143" value="" style="endArrow=none;dashed=1;html=1;rounded=0;" parent="1" edge="1">
          <mxGeometry width="50" height="50" relative="1" as="geometry">
            <mxPoint x="355" y="330" as="sourcePoint" />
            <mxPoint x="425" y="330" as="targetPoint" />
            <Array as="points">
              <mxPoint x="355" y="330" />
            </Array>
          </mxGeometry>
        </mxCell>
        <mxCell id="_mTMMAmOzoBjhHp0LAJW-144" value="" style="endArrow=none;dashed=1;html=1;rounded=0;" parent="1" edge="1">
          <mxGeometry width="50" height="50" relative="1" as="geometry">
            <mxPoint x="462.5" y="330" as="sourcePoint" />
            <mxPoint x="517.5" y="330" as="targetPoint" />
            <Array as="points">
              <mxPoint x="462.5" y="330" />
            </Array>
          </mxGeometry>
        </mxCell>
        <mxCell id="_mTMMAmOzoBjhHp0LAJW-145" style="edgeStyle=orthogonalEdgeStyle;rounded=0;orthogonalLoop=1;jettySize=auto;html=1;exitX=0.5;exitY=1;exitDx=0;exitDy=0;entryX=0.5;entryY=1;entryDx=0;entryDy=0;" parent="1" source="_mTMMAmOzoBjhHp0LAJW-146" target="_mTMMAmOzoBjhHp0LAJW-153" edge="1">
          <mxGeometry relative="1" as="geometry" />
        </mxCell>
        <mxCell id="_mTMMAmOzoBjhHp0LAJW-146" value="&lt;u&gt;personId&lt;/u&gt;" style="whiteSpace=wrap;html=1;align=center;" parent="1" vertex="1">
          <mxGeometry x="590" y="300" width="100" height="40" as="geometry" />
        </mxCell>
        <mxCell id="_mTMMAmOzoBjhHp0LAJW-147" value="email" style="whiteSpace=wrap;html=1;align=center;" parent="1" vertex="1">
          <mxGeometry x="690" y="300" width="100" height="40" as="geometry" />
        </mxCell>
        <mxCell id="_mTMMAmOzoBjhHp0LAJW-148" value="contactNum" style="whiteSpace=wrap;html=1;align=center;" parent="1" vertex="1">
          <mxGeometry x="790" y="300" width="100" height="40" as="geometry" />
        </mxCell>
        <mxCell id="_mTMMAmOzoBjhHp0LAJW-149" value="" style="shape=table;startSize=0;container=1;collapsible=1;childLayout=tableLayout;fixedRows=1;rowLines=0;fontStyle=0;align=center;resizeLast=1;strokeColor=none;fillColor=none;collapsible=0;whiteSpace=wrap;html=1;" parent="1" vertex="1">
          <mxGeometry x="550" y="270" width="180" height="30" as="geometry" />
        </mxCell>
        <mxCell id="_mTMMAmOzoBjhHp0LAJW-150" value="" style="shape=tableRow;horizontal=0;startSize=0;swimlaneHead=0;swimlaneBody=0;fillColor=none;collapsible=0;dropTarget=0;points=[[0,0.5],[1,0.5]];portConstraint=eastwest;top=0;left=0;right=0;bottom=0;" parent="_mTMMAmOzoBjhHp0LAJW-149" vertex="1">
          <mxGeometry width="180" height="30" as="geometry" />
        </mxCell>
        <mxCell id="_mTMMAmOzoBjhHp0LAJW-151" value="" style="shape=partialRectangle;connectable=0;fillColor=none;top=0;left=0;bottom=0;right=0;editable=1;overflow=hidden;" parent="_mTMMAmOzoBjhHp0LAJW-150" vertex="1">
          <mxGeometry width="30" height="30" as="geometry">
            <mxRectangle width="30" height="30" as="alternateBounds" />
          </mxGeometry>
        </mxCell>
        <mxCell id="_mTMMAmOzoBjhHp0LAJW-152" value="Customer" style="shape=partialRectangle;connectable=0;fillColor=none;top=0;left=0;bottom=0;right=0;align=left;spacingLeft=6;overflow=hidden;fontSize=17;" parent="_mTMMAmOzoBjhHp0LAJW-150" vertex="1">
          <mxGeometry x="30" width="150" height="30" as="geometry">
            <mxRectangle width="150" height="30" as="alternateBounds" />
          </mxGeometry>
        </mxCell>
        <mxCell id="_mTMMAmOzoBjhHp0LAJW-153" value="&lt;u&gt;personId&lt;/u&gt;" style="whiteSpace=wrap;html=1;align=center;" parent="1" vertex="1">
          <mxGeometry x="970" y="300" width="100" height="40" as="geometry" />
        </mxCell>
        <mxCell id="_mTMMAmOzoBjhHp0LAJW-154" value="f_Name" style="whiteSpace=wrap;html=1;align=center;" parent="1" vertex="1">
          <mxGeometry x="1070" y="300" width="100" height="40" as="geometry" />
        </mxCell>
        <mxCell id="_mTMMAmOzoBjhHp0LAJW-155" value="l_Name&amp;nbsp;" style="whiteSpace=wrap;html=1;align=center;" parent="1" vertex="1">
          <mxGeometry x="1170" y="300" width="100" height="40" as="geometry" />
        </mxCell>
        <mxCell id="_mTMMAmOzoBjhHp0LAJW-156" value="" style="shape=table;startSize=0;container=1;collapsible=1;childLayout=tableLayout;fixedRows=1;rowLines=0;fontStyle=0;align=center;resizeLast=1;strokeColor=none;fillColor=none;collapsible=0;whiteSpace=wrap;html=1;" parent="1" vertex="1">
          <mxGeometry x="930" y="270" width="180" height="30" as="geometry" />
        </mxCell>
        <mxCell id="_mTMMAmOzoBjhHp0LAJW-157" value="" style="shape=tableRow;horizontal=0;startSize=0;swimlaneHead=0;swimlaneBody=0;fillColor=none;collapsible=0;dropTarget=0;points=[[0,0.5],[1,0.5]];portConstraint=eastwest;top=0;left=0;right=0;bottom=0;" parent="_mTMMAmOzoBjhHp0LAJW-156" vertex="1">
          <mxGeometry width="180" height="30" as="geometry" />
        </mxCell>
        <mxCell id="_mTMMAmOzoBjhHp0LAJW-158" value="" style="shape=partialRectangle;connectable=0;fillColor=none;top=0;left=0;bottom=0;right=0;editable=1;overflow=hidden;" parent="_mTMMAmOzoBjhHp0LAJW-157" vertex="1">
          <mxGeometry width="30" height="30" as="geometry">
            <mxRectangle width="30" height="30" as="alternateBounds" />
          </mxGeometry>
        </mxCell>
        <mxCell id="_mTMMAmOzoBjhHp0LAJW-159" value="Person" style="shape=partialRectangle;connectable=0;fillColor=none;top=0;left=0;bottom=0;right=0;align=left;spacingLeft=6;overflow=hidden;fontSize=17;" parent="_mTMMAmOzoBjhHp0LAJW-157" vertex="1">
          <mxGeometry x="30" width="150" height="30" as="geometry">
            <mxRectangle width="150" height="30" as="alternateBounds" />
          </mxGeometry>
        </mxCell>
        <mxCell id="_mTMMAmOzoBjhHp0LAJW-160" value="" style="shape=table;startSize=0;container=1;collapsible=1;childLayout=tableLayout;fixedRows=1;rowLines=0;fontStyle=0;align=center;resizeLast=1;strokeColor=none;fillColor=none;collapsible=0;whiteSpace=wrap;html=1;" parent="1" vertex="1">
          <mxGeometry x="550" y="430" width="180" height="30" as="geometry" />
        </mxCell>
        <mxCell id="_mTMMAmOzoBjhHp0LAJW-161" value="" style="shape=tableRow;horizontal=0;startSize=0;swimlaneHead=0;swimlaneBody=0;fillColor=none;collapsible=0;dropTarget=0;points=[[0,0.5],[1,0.5]];portConstraint=eastwest;top=0;left=0;right=0;bottom=0;" parent="_mTMMAmOzoBjhHp0LAJW-160" vertex="1">
          <mxGeometry width="180" height="30" as="geometry" />
        </mxCell>
        <mxCell id="_mTMMAmOzoBjhHp0LAJW-162" value="" style="shape=partialRectangle;connectable=0;fillColor=none;top=0;left=0;bottom=0;right=0;editable=1;overflow=hidden;" parent="_mTMMAmOzoBjhHp0LAJW-161" vertex="1">
          <mxGeometry width="30" height="30" as="geometry">
            <mxRectangle width="30" height="30" as="alternateBounds" />
          </mxGeometry>
        </mxCell>
        <mxCell id="_mTMMAmOzoBjhHp0LAJW-163" value="Deliver" style="shape=partialRectangle;connectable=0;fillColor=none;top=0;left=0;bottom=0;right=0;align=left;spacingLeft=6;overflow=hidden;fontSize=17;" parent="_mTMMAmOzoBjhHp0LAJW-161" vertex="1">
          <mxGeometry x="30" width="150" height="30" as="geometry">
            <mxRectangle width="150" height="30" as="alternateBounds" />
          </mxGeometry>
        </mxCell>
        <mxCell id="_mTMMAmOzoBjhHp0LAJW-164" style="edgeStyle=orthogonalEdgeStyle;rounded=0;orthogonalLoop=1;jettySize=auto;html=1;exitX=0.5;exitY=1;exitDx=0;exitDy=0;" parent="1" source="_mTMMAmOzoBjhHp0LAJW-165" edge="1">
          <mxGeometry relative="1" as="geometry">
            <mxPoint x="1020" y="340" as="targetPoint" />
          </mxGeometry>
        </mxCell>
        <mxCell id="_mTMMAmOzoBjhHp0LAJW-165" value="&lt;u&gt;personId&lt;/u&gt;" style="whiteSpace=wrap;html=1;align=center;" parent="1" vertex="1">
          <mxGeometry x="590" y="460" width="100" height="40" as="geometry" />
        </mxCell>
        <mxCell id="_mTMMAmOzoBjhHp0LAJW-166" value="age&amp;nbsp;" style="whiteSpace=wrap;html=1;align=center;" parent="1" vertex="1">
          <mxGeometry x="690" y="460" width="100" height="40" as="geometry" />
        </mxCell>
        <mxCell id="_mTMMAmOzoBjhHp0LAJW-167" value="salary&amp;nbsp;" style="whiteSpace=wrap;html=1;align=center;" parent="1" vertex="1">
          <mxGeometry x="790" y="460" width="100" height="40" as="geometry" />
        </mxCell>
        <mxCell id="_mTMMAmOzoBjhHp0LAJW-168" value="" style="endArrow=none;dashed=1;html=1;rounded=0;" parent="1" edge="1">
          <mxGeometry width="50" height="50" relative="1" as="geometry">
            <mxPoint x="615" y="330" as="sourcePoint" />
            <mxPoint x="665" y="330" as="targetPoint" />
            <Array as="points">
              <mxPoint x="615" y="330" />
            </Array>
          </mxGeometry>
        </mxCell>
        <mxCell id="_mTMMAmOzoBjhHp0LAJW-169" value="" style="endArrow=none;dashed=1;html=1;rounded=0;" parent="1" edge="1">
          <mxGeometry width="50" height="50" relative="1" as="geometry">
            <mxPoint x="615" y="490" as="sourcePoint" />
            <mxPoint x="665" y="490" as="targetPoint" />
            <Array as="points">
              <mxPoint x="615" y="490" />
            </Array>
          </mxGeometry>
        </mxCell>
        <mxCell id="_mTMMAmOzoBjhHp0LAJW-170" style="edgeStyle=orthogonalEdgeStyle;rounded=0;orthogonalLoop=1;jettySize=auto;html=1;exitX=0;exitY=0.5;exitDx=0;exitDy=0;entryX=0;entryY=0.5;entryDx=0;entryDy=0;" parent="1" source="_mTMMAmOzoBjhHp0LAJW-171" target="_mTMMAmOzoBjhHp0LAJW-133" edge="1">
          <mxGeometry relative="1" as="geometry" />
        </mxCell>
        <mxCell id="_mTMMAmOzoBjhHp0LAJW-171" value="&lt;u&gt;orderId&lt;/u&gt;" style="whiteSpace=wrap;html=1;align=center;" parent="1" vertex="1">
          <mxGeometry x="140" y="620" width="100" height="40" as="geometry" />
        </mxCell>
        <mxCell id="_mTMMAmOzoBjhHp0LAJW-172" value="" style="shape=table;startSize=0;container=1;collapsible=1;childLayout=tableLayout;fixedRows=1;rowLines=0;fontStyle=0;align=center;resizeLast=1;strokeColor=none;fillColor=none;collapsible=0;whiteSpace=wrap;html=1;" parent="1" vertex="1">
          <mxGeometry x="100" y="590" width="180" height="30" as="geometry" />
        </mxCell>
        <mxCell id="_mTMMAmOzoBjhHp0LAJW-173" value="" style="shape=tableRow;horizontal=0;startSize=0;swimlaneHead=0;swimlaneBody=0;fillColor=none;collapsible=0;dropTarget=0;points=[[0,0.5],[1,0.5]];portConstraint=eastwest;top=0;left=0;right=0;bottom=0;" parent="_mTMMAmOzoBjhHp0LAJW-172" vertex="1">
          <mxGeometry width="180" height="30" as="geometry" />
        </mxCell>
        <mxCell id="_mTMMAmOzoBjhHp0LAJW-174" value="" style="shape=partialRectangle;connectable=0;fillColor=none;top=0;left=0;bottom=0;right=0;editable=1;overflow=hidden;" parent="_mTMMAmOzoBjhHp0LAJW-173" vertex="1">
          <mxGeometry width="30" height="30" as="geometry">
            <mxRectangle width="30" height="30" as="alternateBounds" />
          </mxGeometry>
        </mxCell>
        <mxCell id="_mTMMAmOzoBjhHp0LAJW-175" value="DeliveredOrders" style="shape=partialRectangle;connectable=0;fillColor=none;top=0;left=0;bottom=0;right=0;align=left;spacingLeft=6;overflow=hidden;fontSize=17;" parent="_mTMMAmOzoBjhHp0LAJW-173" vertex="1">
          <mxGeometry x="30" width="150" height="30" as="geometry">
            <mxRectangle width="150" height="30" as="alternateBounds" />
          </mxGeometry>
        </mxCell>
        <mxCell id="_mTMMAmOzoBjhHp0LAJW-176" style="edgeStyle=orthogonalEdgeStyle;rounded=0;orthogonalLoop=1;jettySize=auto;html=1;exitX=0.5;exitY=0;exitDx=0;exitDy=0;entryX=0;entryY=0.5;entryDx=0;entryDy=0;" parent="1" source="_mTMMAmOzoBjhHp0LAJW-177" target="_mTMMAmOzoBjhHp0LAJW-165" edge="1">
          <mxGeometry relative="1" as="geometry" />
        </mxCell>
        <mxCell id="_mTMMAmOzoBjhHp0LAJW-177" value="DeliverId" style="whiteSpace=wrap;html=1;align=center;" parent="1" vertex="1">
          <mxGeometry x="240" y="620" width="100" height="40" as="geometry" />
        </mxCell>
        <mxCell id="_mTMMAmOzoBjhHp0LAJW-178" value="delivery_Fee" style="whiteSpace=wrap;html=1;align=center;" parent="1" vertex="1">
          <mxGeometry x="340" y="620" width="100" height="40" as="geometry" />
        </mxCell>
        <mxCell id="_mTMMAmOzoBjhHp0LAJW-179" value="street" style="whiteSpace=wrap;html=1;align=center;" parent="1" vertex="1">
          <mxGeometry x="440" y="620" width="100" height="40" as="geometry" />
        </mxCell>
        <mxCell id="_mTMMAmOzoBjhHp0LAJW-237" style="edgeStyle=orthogonalEdgeStyle;rounded=0;orthogonalLoop=1;jettySize=auto;html=1;exitX=1;exitY=0.5;exitDx=0;exitDy=0;entryX=0.5;entryY=1;entryDx=0;entryDy=0;" parent="1" source="_mTMMAmOzoBjhHp0LAJW-185" target="_mTMMAmOzoBjhHp0LAJW-133" edge="1">
          <mxGeometry relative="1" as="geometry" />
        </mxCell>
        <mxCell id="_mTMMAmOzoBjhHp0LAJW-185" value="&lt;u&gt;orderId&lt;/u&gt;" style="whiteSpace=wrap;html=1;align=center;" parent="1" vertex="1">
          <mxGeometry x="140" y="460" width="100" height="40" as="geometry" />
        </mxCell>
        <mxCell id="_mTMMAmOzoBjhHp0LAJW-186" value="" style="endArrow=none;dashed=1;html=1;rounded=0;" parent="1" edge="1">
          <mxGeometry width="50" height="50" relative="1" as="geometry">
            <mxPoint x="165" y="490" as="sourcePoint" />
            <mxPoint x="215" y="490.4000000000001" as="targetPoint" />
            <Array as="points">
              <mxPoint x="165" y="490" />
            </Array>
          </mxGeometry>
        </mxCell>
        <mxCell id="_mTMMAmOzoBjhHp0LAJW-187" value="unit" style="whiteSpace=wrap;html=1;align=center;" parent="1" vertex="1">
          <mxGeometry x="540" y="620" width="100" height="40" as="geometry" />
        </mxCell>
        <mxCell id="_mTMMAmOzoBjhHp0LAJW-188" value="date" style="whiteSpace=wrap;html=1;align=center;" parent="1" vertex="1">
          <mxGeometry x="640" y="620" width="100" height="40" as="geometry" />
        </mxCell>
        <mxCell id="_mTMMAmOzoBjhHp0LAJW-189" value="time" style="whiteSpace=wrap;html=1;align=center;" parent="1" vertex="1">
          <mxGeometry x="740" y="620" width="100" height="40" as="geometry" />
        </mxCell>
        <mxCell id="_mTMMAmOzoBjhHp0LAJW-190" value="suburbs" style="whiteSpace=wrap;html=1;align=center;" parent="1" vertex="1">
          <mxGeometry x="840" y="620" width="100" height="40" as="geometry" />
        </mxCell>
        <mxCell id="_mTMMAmOzoBjhHp0LAJW-191" value="instruction" style="whiteSpace=wrap;html=1;align=center;" parent="1" vertex="1">
          <mxGeometry x="940" y="620" width="100" height="40" as="geometry" />
        </mxCell>
        <mxCell id="_mTMMAmOzoBjhHp0LAJW-192" value="" style="endArrow=none;dashed=1;html=1;rounded=0;" parent="1" edge="1">
          <mxGeometry width="50" height="50" relative="1" as="geometry">
            <mxPoint x="262.5" y="650" as="sourcePoint" />
            <mxPoint x="317.5" y="650" as="targetPoint" />
            <Array as="points">
              <mxPoint x="262.5" y="650" />
            </Array>
          </mxGeometry>
        </mxCell>
        <mxCell id="_mTMMAmOzoBjhHp0LAJW-193" value="" style="endArrow=none;dashed=1;html=1;rounded=0;" parent="1" edge="1">
          <mxGeometry width="50" height="50" relative="1" as="geometry">
            <mxPoint x="162.5" y="650" as="sourcePoint" />
            <mxPoint x="217.5" y="650" as="targetPoint" />
            <Array as="points">
              <mxPoint x="162.5" y="650" />
            </Array>
          </mxGeometry>
        </mxCell>
        <mxCell id="_mTMMAmOzoBjhHp0LAJW-194" style="edgeStyle=orthogonalEdgeStyle;rounded=0;orthogonalLoop=1;jettySize=auto;html=1;exitX=0;exitY=0.5;exitDx=0;exitDy=0;entryX=0;entryY=0.5;entryDx=0;entryDy=0;" parent="1" source="_mTMMAmOzoBjhHp0LAJW-195" target="_mTMMAmOzoBjhHp0LAJW-133" edge="1">
          <mxGeometry relative="1" as="geometry" />
        </mxCell>
        <mxCell id="_mTMMAmOzoBjhHp0LAJW-195" value="&lt;u&gt;orderId&lt;/u&gt;" style="whiteSpace=wrap;html=1;align=center;" parent="1" vertex="1">
          <mxGeometry x="140" y="780" width="100" height="40" as="geometry" />
        </mxCell>
        <mxCell id="_mTMMAmOzoBjhHp0LAJW-196" value="" style="shape=table;startSize=0;container=1;collapsible=1;childLayout=tableLayout;fixedRows=1;rowLines=0;fontStyle=0;align=center;resizeLast=1;strokeColor=none;fillColor=none;collapsible=0;whiteSpace=wrap;html=1;" parent="1" vertex="1">
          <mxGeometry x="100" y="750" width="180" height="30" as="geometry" />
        </mxCell>
        <mxCell id="_mTMMAmOzoBjhHp0LAJW-197" value="" style="shape=tableRow;horizontal=0;startSize=0;swimlaneHead=0;swimlaneBody=0;fillColor=none;collapsible=0;dropTarget=0;points=[[0,0.5],[1,0.5]];portConstraint=eastwest;top=0;left=0;right=0;bottom=0;" parent="_mTMMAmOzoBjhHp0LAJW-196" vertex="1">
          <mxGeometry width="180" height="30" as="geometry" />
        </mxCell>
        <mxCell id="_mTMMAmOzoBjhHp0LAJW-198" value="" style="shape=partialRectangle;connectable=0;fillColor=none;top=0;left=0;bottom=0;right=0;editable=1;overflow=hidden;" parent="_mTMMAmOzoBjhHp0LAJW-197" vertex="1">
          <mxGeometry width="30" height="30" as="geometry">
            <mxRectangle width="30" height="30" as="alternateBounds" />
          </mxGeometry>
        </mxCell>
        <mxCell id="_mTMMAmOzoBjhHp0LAJW-199" value="Dine_inOrder" style="shape=partialRectangle;connectable=0;fillColor=none;top=0;left=0;bottom=0;right=0;align=left;spacingLeft=6;overflow=hidden;fontSize=17;" parent="_mTMMAmOzoBjhHp0LAJW-197" vertex="1">
          <mxGeometry x="30" width="150" height="30" as="geometry">
            <mxRectangle width="150" height="30" as="alternateBounds" />
          </mxGeometry>
        </mxCell>
        <mxCell id="_mTMMAmOzoBjhHp0LAJW-202" value="state" style="whiteSpace=wrap;html=1;align=center;" parent="1" vertex="1">
          <mxGeometry x="240" y="780" width="100" height="40" as="geometry" />
        </mxCell>
        <mxCell id="_mTMMAmOzoBjhHp0LAJW-203" value="gNum" style="whiteSpace=wrap;html=1;align=center;" parent="1" vertex="1">
          <mxGeometry x="340" y="780" width="100" height="40" as="geometry" />
        </mxCell>
        <mxCell id="_mTMMAmOzoBjhHp0LAJW-205" value="startTime" style="whiteSpace=wrap;html=1;align=center;" parent="1" vertex="1">
          <mxGeometry x="440" y="780" width="100" height="40" as="geometry" />
        </mxCell>
        <mxCell id="_mTMMAmOzoBjhHp0LAJW-206" value="endTime" style="whiteSpace=wrap;html=1;align=center;" parent="1" vertex="1">
          <mxGeometry x="540" y="780" width="100" height="40" as="geometry" />
        </mxCell>
        <mxCell id="_mTMMAmOzoBjhHp0LAJW-207" value="" style="endArrow=none;dashed=1;html=1;rounded=0;" parent="1" edge="1">
          <mxGeometry width="50" height="50" relative="1" as="geometry">
            <mxPoint x="162.5" y="810" as="sourcePoint" />
            <mxPoint x="217.5" y="810" as="targetPoint" />
            <Array as="points">
              <mxPoint x="162.5" y="810" />
            </Array>
          </mxGeometry>
        </mxCell>
        <mxCell id="_mTMMAmOzoBjhHp0LAJW-209" value="&lt;u&gt;tableId&lt;/u&gt;" style="whiteSpace=wrap;html=1;align=center;" parent="1" vertex="1">
          <mxGeometry x="940" y="780" width="100" height="40" as="geometry" />
        </mxCell>
        <mxCell id="_mTMMAmOzoBjhHp0LAJW-210" value="" style="shape=table;startSize=0;container=1;collapsible=1;childLayout=tableLayout;fixedRows=1;rowLines=0;fontStyle=0;align=center;resizeLast=1;strokeColor=none;fillColor=none;collapsible=0;whiteSpace=wrap;html=1;" parent="1" vertex="1">
          <mxGeometry x="900" y="750" width="180" height="30" as="geometry" />
        </mxCell>
        <mxCell id="_mTMMAmOzoBjhHp0LAJW-211" value="" style="shape=tableRow;horizontal=0;startSize=0;swimlaneHead=0;swimlaneBody=0;fillColor=none;collapsible=0;dropTarget=0;points=[[0,0.5],[1,0.5]];portConstraint=eastwest;top=0;left=0;right=0;bottom=0;" parent="_mTMMAmOzoBjhHp0LAJW-210" vertex="1">
          <mxGeometry width="180" height="30" as="geometry" />
        </mxCell>
        <mxCell id="_mTMMAmOzoBjhHp0LAJW-212" value="" style="shape=partialRectangle;connectable=0;fillColor=none;top=0;left=0;bottom=0;right=0;editable=1;overflow=hidden;" parent="_mTMMAmOzoBjhHp0LAJW-211" vertex="1">
          <mxGeometry width="30" height="30" as="geometry">
            <mxRectangle width="30" height="30" as="alternateBounds" />
          </mxGeometry>
        </mxCell>
        <mxCell id="_mTMMAmOzoBjhHp0LAJW-213" value="Table" style="shape=partialRectangle;connectable=0;fillColor=none;top=0;left=0;bottom=0;right=0;align=left;spacingLeft=6;overflow=hidden;fontSize=17;" parent="_mTMMAmOzoBjhHp0LAJW-211" vertex="1">
          <mxGeometry x="30" width="150" height="30" as="geometry">
            <mxRectangle width="150" height="30" as="alternateBounds" />
          </mxGeometry>
        </mxCell>
        <mxCell id="_mTMMAmOzoBjhHp0LAJW-214" value="tableLocation" style="whiteSpace=wrap;html=1;align=center;" parent="1" vertex="1">
          <mxGeometry x="1240" y="780" width="100" height="40" as="geometry" />
        </mxCell>
        <mxCell id="_mTMMAmOzoBjhHp0LAJW-215" value="capacity" style="whiteSpace=wrap;html=1;align=center;" parent="1" vertex="1">
          <mxGeometry x="1140" y="780" width="100" height="40" as="geometry" />
        </mxCell>
        <mxCell id="_mTMMAmOzoBjhHp0LAJW-216" style="edgeStyle=orthogonalEdgeStyle;rounded=0;orthogonalLoop=1;jettySize=auto;html=1;exitX=0.5;exitY=0;exitDx=0;exitDy=0;entryX=0.5;entryY=1;entryDx=0;entryDy=0;" parent="1" source="_mTMMAmOzoBjhHp0LAJW-217" target="_mTMMAmOzoBjhHp0LAJW-209" edge="1">
          <mxGeometry relative="1" as="geometry" />
        </mxCell>
        <mxCell id="_mTMMAmOzoBjhHp0LAJW-217" value="&lt;u&gt;tableId&lt;/u&gt;" style="whiteSpace=wrap;html=1;align=center;" parent="1" vertex="1">
          <mxGeometry x="140" y="940" width="100" height="40" as="geometry" />
        </mxCell>
        <mxCell id="_mTMMAmOzoBjhHp0LAJW-218" value="" style="shape=table;startSize=0;container=1;collapsible=1;childLayout=tableLayout;fixedRows=1;rowLines=0;fontStyle=0;align=center;resizeLast=1;strokeColor=none;fillColor=none;collapsible=0;whiteSpace=wrap;html=1;" parent="1" vertex="1">
          <mxGeometry x="100" y="910" width="180" height="30" as="geometry" />
        </mxCell>
        <mxCell id="_mTMMAmOzoBjhHp0LAJW-219" value="" style="shape=tableRow;horizontal=0;startSize=0;swimlaneHead=0;swimlaneBody=0;fillColor=none;collapsible=0;dropTarget=0;points=[[0,0.5],[1,0.5]];portConstraint=eastwest;top=0;left=0;right=0;bottom=0;" parent="_mTMMAmOzoBjhHp0LAJW-218" vertex="1">
          <mxGeometry width="180" height="30" as="geometry" />
        </mxCell>
        <mxCell id="_mTMMAmOzoBjhHp0LAJW-220" value="" style="shape=partialRectangle;connectable=0;fillColor=none;top=0;left=0;bottom=0;right=0;editable=1;overflow=hidden;" parent="_mTMMAmOzoBjhHp0LAJW-219" vertex="1">
          <mxGeometry width="30" height="30" as="geometry">
            <mxRectangle width="30" height="30" as="alternateBounds" />
          </mxGeometry>
        </mxCell>
        <mxCell id="_mTMMAmOzoBjhHp0LAJW-221" value="reservationDetail" style="shape=partialRectangle;connectable=0;fillColor=none;top=0;left=0;bottom=0;right=0;align=left;spacingLeft=6;overflow=hidden;fontSize=17;" parent="_mTMMAmOzoBjhHp0LAJW-219" vertex="1">
          <mxGeometry x="30" width="150" height="30" as="geometry">
            <mxRectangle width="150" height="30" as="alternateBounds" />
          </mxGeometry>
        </mxCell>
        <mxCell id="_mTMMAmOzoBjhHp0LAJW-224" value="r_startTime" style="whiteSpace=wrap;html=1;align=center;" parent="1" vertex="1">
          <mxGeometry x="240" y="940" width="100" height="40" as="geometry" />
        </mxCell>
        <mxCell id="_mTMMAmOzoBjhHp0LAJW-225" value="r_endTime" style="whiteSpace=wrap;html=1;align=center;" parent="1" vertex="1">
          <mxGeometry x="340" y="940" width="100" height="40" as="geometry" />
        </mxCell>
        <mxCell id="_mTMMAmOzoBjhHp0LAJW-227" value="" style="endArrow=none;dashed=1;html=1;rounded=0;" parent="1" edge="1">
          <mxGeometry width="50" height="50" relative="1" as="geometry">
            <mxPoint x="162.5" y="970" as="sourcePoint" />
            <mxPoint x="217.5" y="970" as="targetPoint" />
            <Array as="points">
              <mxPoint x="162.5" y="970" />
            </Array>
          </mxGeometry>
        </mxCell>
        <mxCell id="_mTMMAmOzoBjhHp0LAJW-231" value="&lt;span style=&quot;font-size: 17px;&quot;&gt;Order&lt;/span&gt;" style="text;html=1;align=center;verticalAlign=middle;whiteSpace=wrap;rounded=0;" parent="1" vertex="1">
          <mxGeometry x="130" y="270" width="60" height="30" as="geometry" />
        </mxCell>
        <mxCell id="_mTMMAmOzoBjhHp0LAJW-236" value="" style="edgeStyle=orthogonalEdgeStyle;rounded=0;orthogonalLoop=1;jettySize=auto;html=1;exitX=0.5;exitY=0;exitDx=0;exitDy=0;entryX=0.5;entryY=1;entryDx=0;entryDy=0;" parent="1" source="_mTMMAmOzoBjhHp0LAJW-185" target="_mTMMAmOzoBjhHp0LAJW-234" edge="1">
          <mxGeometry relative="1" as="geometry">
            <mxPoint x="190" y="460" as="sourcePoint" />
            <mxPoint x="190" y="340" as="targetPoint" />
          </mxGeometry>
        </mxCell>
        <mxCell id="_mTMMAmOzoBjhHp0LAJW-234" value="&lt;span style=&quot;text-align: left; text-wrap: nowrap;&quot;&gt;&lt;font style=&quot;font-size: 17px;&quot;&gt;TakeoutOrder&lt;/font&gt;&lt;/span&gt;" style="text;html=1;align=center;verticalAlign=middle;whiteSpace=wrap;rounded=0;" parent="1" vertex="1">
          <mxGeometry x="170" y="430" width="40" height="30" as="geometry" />
        </mxCell>
        <mxCell id="_mTMMAmOzoBjhHp0LAJW-240" value="" style="endArrow=none;dashed=1;html=1;rounded=0;" parent="1" edge="1">
          <mxGeometry width="50" height="50" relative="1" as="geometry">
            <mxPoint x="-282.5" y="180" as="sourcePoint" />
            <mxPoint x="-317.5" y="180" as="targetPoint" />
          </mxGeometry>
        </mxCell>
        <mxCell id="_mTMMAmOzoBjhHp0LAJW-247" value="f_Name" style="whiteSpace=wrap;html=1;align=center;" parent="1" vertex="1">
          <mxGeometry x="690" y="140" width="100" height="40" as="geometry" />
        </mxCell>
        <mxCell id="_mTMMAmOzoBjhHp0LAJW-251" value="l_Name" style="whiteSpace=wrap;html=1;align=center;" parent="1" vertex="1">
          <mxGeometry x="790" y="140" width="100" height="40" as="geometry" />
        </mxCell>
        <mxCell id="_mTMMAmOzoBjhHp0LAJW-258" style="edgeStyle=orthogonalEdgeStyle;rounded=0;orthogonalLoop=1;jettySize=auto;html=1;exitX=0.4;exitY=1;exitDx=0;exitDy=0;exitPerimeter=0;" parent="1" source="_mTMMAmOzoBjhHp0LAJW-255" edge="1">
          <mxGeometry relative="1" as="geometry">
            <mxPoint x="140" y="310" as="targetPoint" />
            <mxPoint x="1080" y="830" as="sourcePoint" />
            <Array as="points">
              <mxPoint x="1080" y="1000" />
              <mxPoint x="50" y="1000" />
              <mxPoint x="50" y="310" />
            </Array>
          </mxGeometry>
        </mxCell>
        <mxCell id="_mTMMAmOzoBjhHp0LAJW-255" value="orderId" style="whiteSpace=wrap;html=1;align=center;" parent="1" vertex="1">
          <mxGeometry x="1040" y="780" width="100" height="40" as="geometry" />
        </mxCell>
        <mxCell id="_mTMMAmOzoBjhHp0LAJW-257" value="" style="endArrow=none;dashed=1;html=1;rounded=0;" parent="1" edge="1">
          <mxGeometry width="50" height="50" relative="1" as="geometry">
            <mxPoint x="1065" y="810" as="sourcePoint" />
            <mxPoint x="1115" y="810" as="targetPoint" />
            <Array as="points" />
          </mxGeometry>
        </mxCell>
        <mxCell id="_mTMMAmOzoBjhHp0LAJW-271" style="edgeStyle=orthogonalEdgeStyle;rounded=0;orthogonalLoop=1;jettySize=auto;html=1;exitX=0.5;exitY=1;exitDx=0;exitDy=0;entryX=0.189;entryY=1.092;entryDx=0;entryDy=0;entryPerimeter=0;" parent="1" source="_mTMMAmOzoBjhHp0LAJW-259" target="_mTMMAmOzoBjhHp0LAJW-195" edge="1">
          <mxGeometry relative="1" as="geometry">
            <mxPoint x="180" y="880" as="targetPoint" />
            <Array as="points">
              <mxPoint x="750" y="860" />
              <mxPoint x="159" y="860" />
            </Array>
          </mxGeometry>
        </mxCell>
        <mxCell id="_mTMMAmOzoBjhHp0LAJW-259" value="&lt;u&gt;orderId&lt;/u&gt;" style="whiteSpace=wrap;html=1;align=center;" parent="1" vertex="1">
          <mxGeometry x="700" y="710" width="100" height="40" as="geometry" />
        </mxCell>
        <mxCell id="_mTMMAmOzoBjhHp0LAJW-270" style="edgeStyle=orthogonalEdgeStyle;rounded=0;orthogonalLoop=1;jettySize=auto;html=1;entryX=0;entryY=0.75;entryDx=0;entryDy=0;" parent="1" source="_mTMMAmOzoBjhHp0LAJW-263" target="_mTMMAmOzoBjhHp0LAJW-209" edge="1">
          <mxGeometry relative="1" as="geometry">
            <mxPoint x="900" y="840" as="targetPoint" />
            <Array as="points">
              <mxPoint x="850" y="810" />
            </Array>
          </mxGeometry>
        </mxCell>
        <mxCell id="_mTMMAmOzoBjhHp0LAJW-263" value="&lt;u&gt;tableId&lt;/u&gt;" style="whiteSpace=wrap;html=1;align=center;" parent="1" vertex="1">
          <mxGeometry x="800" y="710" width="100" height="40" as="geometry" />
        </mxCell>
        <mxCell id="_mTMMAmOzoBjhHp0LAJW-267" value="&lt;font style=&quot;font-size: 17px;&quot;&gt;allocate&lt;/font&gt;" style="text;html=1;align=center;verticalAlign=middle;whiteSpace=wrap;rounded=0;" parent="1" vertex="1">
          <mxGeometry x="700" y="680" width="60" height="30" as="geometry" />
        </mxCell>
        <mxCell id="_mTMMAmOzoBjhHp0LAJW-268" value="" style="endArrow=none;dashed=1;html=1;rounded=0;" parent="1" edge="1">
          <mxGeometry width="50" height="50" relative="1" as="geometry">
            <mxPoint x="730" y="739.73" as="sourcePoint" />
            <mxPoint x="770" y="739.73" as="targetPoint" />
          </mxGeometry>
        </mxCell>
        <mxCell id="_mTMMAmOzoBjhHp0LAJW-269" value="" style="endArrow=none;dashed=1;html=1;rounded=0;" parent="1" edge="1">
          <mxGeometry width="50" height="50" relative="1" as="geometry">
            <mxPoint x="825" y="739.73" as="sourcePoint" />
            <mxPoint x="875" y="739.73" as="targetPoint" />
          </mxGeometry>
        </mxCell>
        <mxCell id="_mTMMAmOzoBjhHp0LAJW-272" value="" style="endArrow=none;dashed=1;html=1;rounded=0;" parent="1" edge="1">
          <mxGeometry width="50" height="50" relative="1" as="geometry">
            <mxPoint x="-595" y="610" as="sourcePoint" />
            <mxPoint x="-545" y="610" as="targetPoint" />
            <Array as="points">
              <mxPoint x="-565" y="610" />
            </Array>
          </mxGeometry>
        </mxCell>
        <mxCell id="_mTMMAmOzoBjhHp0LAJW-275" value="" style="endArrow=none;dashed=1;html=1;rounded=0;" parent="1" edge="1">
          <mxGeometry width="50" height="50" relative="1" as="geometry">
            <mxPoint x="-715" y="610" as="sourcePoint" />
            <mxPoint x="-665" y="610" as="targetPoint" />
          </mxGeometry>
        </mxCell>
        <mxCell id="XEZWPGwFchcR1tw16ZJv-1" value="r_state" style="rounded=0;whiteSpace=wrap;html=1;" vertex="1" parent="1">
          <mxGeometry x="440" y="940" width="120" height="40" as="geometry" />
        </mxCell>
      </root>
    </mxGraphModel>
  </diagram>
</mxfile>
